<svg width="347" height="451" viewBox="0 0 347 451" fill="none" xmlns="http://www.w3.org/2000/svg">
<circle cx="50" cy="50" r="50" fill="url(#paint0_linear)"/>
<path d="M62.3461 49.0512C59.9569 47.6775 57.9649 46.5576 56.3639 45.6579C52.861 43.6874 50.8823 42.5757 49.398 41.4527L49.7666 40.3922C51.6255 41.9379 53.8734 43.2195 59.006 46.1441C60.3551 46.9129 61.8855 47.785 63.6656 48.8076C66.6147 50.5028 69.1748 52.593 71.2753 55.0201C72.8958 56.8944 73.8744 59.2508 74.075 61.6789C73.6748 60.816 73.1107 59.7381 72.344 58.5404C70.613 55.838 67.4745 51.9983 62.3461 49.0512ZM50.0122 48.1781C50.1525 48.0593 50.2937 47.9416 50.4381 47.8249C50.6274 47.6693 50.6561 47.3899 50.5015 47.2005C50.347 47.0101 50.0675 46.9814 49.8781 47.136C49.4441 47.4892 49.0275 47.8485 48.6232 48.2119C48.6057 48.2252 48.5894 48.2395 48.574 48.2548C43.8479 52.5183 41.0769 57.4185 39.5547 60.906C39.0685 62.0218 38.6774 63.0567 38.3673 63.9749C38.613 62.073 39.0767 60.0042 39.869 57.8413C40.8148 55.2576 41.6204 53.1202 42.2674 51.4036C44.3382 45.9087 45.1131 43.8532 45.2994 41.1416C45.2994 41.1354 45.3004 41.1293 45.3004 41.1231L45.3311 40.0176L46.0047 39.7719L47.0355 40.5448C48.9128 42.4856 50.8342 43.5655 55.9299 46.4307C57.5288 47.3305 59.5188 48.4493 61.9039 49.82C64.1068 51.0862 65.9299 52.5214 67.4244 53.9555C66.5973 53.4314 65.6095 52.853 64.4712 52.2675C61.2324 50.6 56.1623 48.5896 50.0122 48.1781ZM36.0323 67.8484C36.0815 64.6393 36.6987 61.3923 37.8688 58.1975C38.5751 56.27 39.1862 54.6188 39.7257 53.1622C41.7781 47.6222 42.6768 45.1952 43.1067 42.8162L44.07 43.3925C43.6554 45.2064 42.8549 47.3295 41.4372 51.0914C40.7892 52.809 39.9836 54.9484 39.0357 57.5362C37.5658 61.5489 37.1911 65.2514 37.2515 68.1974C37.2484 68.2312 37.2495 68.265 37.2546 68.2967C37.2802 69.3879 37.3651 70.3747 37.4757 71.2315C37.6589 72.6431 37.9199 73.8306 38.1677 74.7498C36.7602 72.7598 35.9955 70.3266 36.0323 67.8484ZM44.1038 40.1496C44.1867 40.252 44.3095 40.3073 44.4354 40.3104L44.4139 41.0893C44.3812 41.5592 44.329 42.0106 44.2532 42.4682L43.2541 41.8704C43.2695 41.7537 43.2838 41.636 43.2971 41.5183C43.3586 40.9901 43.3657 40.5263 43.3207 40.1394L43.3217 39.1956C43.7977 39.7791 44.0935 40.1384 44.1038 40.1496ZM36.6107 27.9427L40.7421 32.9913C40.8619 33.1367 41.0605 33.1909 41.2376 33.1275L42.8795 32.5297L47.4828 38.0041C47.4542 38.0532 47.4316 38.1054 47.4163 38.1628L47.0703 39.4618L46.3455 38.9182C46.2248 38.8281 46.0681 38.8056 45.9269 38.8568L44.589 39.344C43.8632 38.4586 41.2939 35.316 39.1964 32.6115C37.9752 31.0372 37.1389 29.2857 36.6107 27.9427ZM44.7036 31.8653L46.3077 33.4857C46.323 34.1102 46.3353 34.7141 46.3466 35.274L43.767 32.2062L44.7036 31.8653ZM46.2033 30.0616C46.2299 30.7567 46.2524 31.4763 46.2729 32.1898L45.2605 31.1662L45.1827 24.8226C45.6423 26.1913 46.1265 28.0696 46.2033 30.0616ZM48.7859 39.5201C48.8729 39.602 48.9589 39.6829 49.0459 39.7617L48.6641 40.8631C48.3724 40.6123 48.096 40.3554 47.8237 40.0811L48.1523 38.8455C48.3294 39.0625 48.5413 39.2888 48.7859 39.5201ZM74.4824 64.3526C74.4937 64.3526 74.5049 64.3526 74.5162 64.3516C74.725 64.3352 74.8949 64.1756 74.9226 63.9678C74.9236 63.9616 74.943 63.8081 74.9635 63.546C75.2194 60.2714 74.12 56.9527 71.9458 54.4397C69.7798 51.9369 67.1429 49.7831 64.1078 48.0389C62.3256 47.0142 60.7953 46.1431 59.4451 45.3733C53.4588 41.9615 51.4412 40.813 49.396 38.8762C49.0521 38.5507 48.788 38.2467 48.6119 37.9734C48.6017 37.958 48.5894 37.9437 48.5781 37.9294L48.572 37.9202C48.5617 37.9079 48.5515 37.8956 48.5413 37.8843L47.2535 36.353C47.2249 34.6455 47.1737 32.2133 47.0897 30.0268C46.9321 25.92 45.1806 22.3925 45.1069 22.2441C45.0138 22.0598 44.806 21.9636 44.6054 22.0127C44.4047 22.0619 44.2645 22.242 44.2665 22.4488L44.372 31.0423L42.8672 31.5889V31.5899L41.2294 32.1857L35.7867 25.5361C35.6556 25.3764 35.4325 25.3273 35.2472 25.4194C35.0619 25.5105 34.9647 25.7183 35.0118 25.919C35.0507 26.0807 35.976 29.9081 38.4952 33.1551C39.8137 34.8554 41.3174 36.7266 42.4352 38.1054L42.4332 40.166C42.4332 40.1844 42.4342 40.2029 42.4373 40.2213C42.4772 40.5437 42.47 40.946 42.4158 41.4169C42.0933 44.2156 41.2877 46.3918 38.8934 52.8541C38.354 54.3117 37.7418 55.9629 37.0355 57.8924C35.8317 61.1804 35.195 64.5256 35.1459 67.8351C35.0957 71.1578 36.3855 74.4069 38.6867 76.751C38.8709 76.9383 38.9845 77.0427 38.9897 77.0468C39.0736 77.1246 39.1811 77.1635 39.2886 77.1635C39.3786 77.1635 39.4697 77.1359 39.5475 77.0806C39.7175 76.9578 39.7789 76.7326 39.6949 76.5412C39.6857 76.5207 38.787 74.4509 38.356 71.1179C38.2475 70.2816 38.1646 69.3173 38.14 68.2497C38.2127 67.8341 38.7481 64.9648 40.3798 61.2336C41.8538 57.8638 44.5235 53.1417 49.0562 49.0154C55.4468 49.2693 60.7257 51.3401 64.0392 53.0434C67.6731 54.9095 69.7992 56.749 69.8197 56.7675C69.8934 56.8309 69.9804 56.8647 70.0695 56.8739C70.6622 57.6263 71.1617 58.3418 71.5773 58.9888C73.3973 61.8232 74.0504 64.0118 74.0566 64.0333C74.1118 64.2237 74.2869 64.3526 74.4824 64.3526Z" fill="#434343"/>
<path d="M246.875 383.698C243.004 367.074 244.793 326.42 282.915 296.8C321.038 267.181 298.229 233.228 282.059 219.955" stroke="url(#paint1_linear)" stroke-width="5"/>
<path d="M192.584 198.889C177.681 190.496 148.855 161.657 152.775 113.443C156.695 65.2278 116.171 59.0995 95.4187 62.0621" stroke="url(#paint2_linear)" stroke-width="5"/>
<circle cx="208" cy="401" r="50" fill="url(#paint3_linear)"/>
<path d="M219.273 374.793C219.767 374.793 220.74 373.348 220.74 372.618C220.74 373.348 221.715 374.793 222.209 374.793C221.715 374.793 220.74 376.238 220.74 376.967C220.74 376.238 219.752 374.793 219.273 374.793ZM212.195 387.966C211.699 387.966 210.726 386.521 210.726 385.791C210.726 386.521 209.753 387.966 209.257 387.966C209.753 387.966 210.726 389.411 210.726 390.14C210.726 389.411 211.699 387.966 212.195 387.966ZM199.243 370.349C199.243 369.62 200.216 368.175 200.71 368.175C200.216 368.175 199.243 366.731 199.243 366C199.243 366.731 198.268 368.175 197.774 368.175C198.268 368.191 199.243 369.635 199.243 370.349ZM239.89 388.479C239.735 388.323 239.457 388.323 239.241 388.431C239.087 388.509 238.948 388.633 238.824 388.773C238.777 388.742 238.73 388.711 238.685 388.695C238.005 388.431 237.139 389.612 236.768 390.047C236.134 390.793 235.625 391.569 235.084 392.378C234.543 393.17 233.893 393.868 233.352 394.645C232.811 395.421 232.426 396.276 231.806 397.006C231.173 397.752 230.478 398.388 229.751 399.057C229.009 399.755 228.284 400.471 227.525 401.154C227.108 401.526 226.706 401.9 226.289 402.272C226.058 402.489 225.733 402.863 225.378 402.785C225.502 402.179 226.12 401.62 226.552 401.2C227.17 400.61 227.804 400.051 228.423 399.476C229.009 398.948 229.659 398.451 230.168 397.845C230.632 397.286 230.88 396.541 231.22 395.888C231.838 394.692 232.533 393.511 233.228 392.346C233.769 391.446 234.573 390.358 234.712 389.255C234.975 388.82 235.207 388.385 235.315 387.903C235.362 387.702 235.377 387.469 235.223 387.328C235.084 387.188 234.821 387.188 234.62 387.282C234.419 387.376 234.28 387.546 234.156 387.702C234.141 387.717 234.126 387.733 234.126 387.748C233.94 387.717 233.786 387.826 233.615 387.919C233.074 388.245 232.672 388.773 232.255 389.255C231.327 390.326 230.478 391.461 229.55 392.532C227.711 394.677 225.825 396.805 223.723 398.684C222.658 399.647 221.452 400.486 220.308 401.34C219.241 402.132 218.268 403.049 217.218 403.841C216.908 403.421 218.129 402.024 218.36 401.667C218.871 400.906 219.397 400.3 220.139 399.755C220.834 399.243 221.499 398.777 222.023 398.094C222.457 397.534 222.936 396.68 222.75 395.934C222.72 395.826 222.688 395.732 222.641 395.655C222.921 395.421 223.182 395.157 223.415 394.878C223.584 394.66 223.74 394.396 223.661 394.164C223.584 393.946 223.276 393.838 222.998 393.868C222.72 393.899 222.457 394.039 222.194 394.179C221.76 394.428 221.328 394.677 220.926 394.956C220.509 395.25 220.154 395.546 219.921 395.934C219.397 396.276 218.918 396.617 218.655 396.788C217.866 397.27 217.094 397.627 216.521 398.388C216.027 399.057 215.563 399.755 215.022 400.393C214.419 401.092 213.786 401.697 213.277 402.489C212.751 403.282 212.58 404.167 212.317 405.069C211.776 406.948 211.158 408.782 210.773 410.692C210.416 412.448 210.123 414.295 210.046 416.066C209.954 417.962 210.185 419.888 210.416 421.767C210.634 423.585 210.726 425.465 210.694 427.297C210.664 429.255 210.572 431.228 210.448 433.186C210.386 434.133 210.294 435.08 210.232 436.028C210.17 436.897 209.86 437.892 210.014 438.762C210.123 439.445 210.277 438.467 210.309 438.218C210.354 437.752 210.401 437.286 210.448 436.804C210.54 435.857 210.587 434.894 210.649 433.947C210.788 432.098 210.927 430.234 210.927 428.385C210.927 426.475 210.865 424.579 210.756 422.669C210.649 420.882 210.324 419.096 210.294 417.31C210.247 415.43 210.587 413.534 210.895 411.686C211.205 409.807 211.746 408.004 212.317 406.172C212.565 405.379 212.796 404.587 213.014 403.795C213.23 403.018 213.724 402.381 214.235 401.775C214.776 401.122 215.332 400.501 215.858 399.833C216.367 399.197 216.799 398.373 217.479 397.908C218.191 397.41 218.963 397.006 219.705 396.556C219.72 396.866 219.968 397.147 220.4 397.084C220.663 397.053 220.896 396.898 221.112 396.758C221.561 396.463 221.993 396.167 222.41 395.841C222.658 396.292 222.333 397.053 222.132 397.426C221.715 398.202 221.097 398.715 220.385 399.227C219.675 399.74 219.04 400.19 218.531 400.921C217.99 401.682 217.387 402.474 216.985 403.328C216.893 403.546 216.645 404.137 216.985 404.26C217.171 404.338 217.712 403.78 217.898 403.639C218.578 403.111 219.226 402.521 219.921 401.993C221.298 400.921 222.797 399.989 224.063 398.777C225.408 397.519 226.691 396.198 227.927 394.831C229.164 393.464 230.354 392.004 231.528 390.591C232.069 389.923 232.58 389.177 233.198 388.587C233.337 388.447 233.6 388.183 233.831 388.09C233.724 388.245 233.615 388.401 233.523 388.556C233.26 388.959 233.106 389.348 233.151 389.798C233.183 390.14 233.553 390.42 233.94 390.233C234.047 390.172 234.141 390.094 234.218 389.984C234.032 390.451 233.769 390.901 233.538 391.29C233.059 392.097 232.595 392.906 232.131 393.713C231.667 394.506 231.173 395.282 230.771 396.105C230.369 396.929 230.045 397.566 229.364 398.187C228.113 399.321 226.676 400.424 225.594 401.729C225.393 401.961 224.976 402.474 225.006 402.8C225.038 403.189 225.393 403.204 225.671 403.08C226.398 402.754 227.108 401.931 227.696 401.387C228.361 400.765 229.024 400.129 229.689 399.491C230.292 398.916 230.987 398.42 231.545 397.783C231.853 397.426 232.208 397.069 232.486 396.68C232.749 396.308 232.888 395.856 233.151 395.469C233.646 394.738 234.187 394.024 234.727 393.325C235.779 391.958 236.583 390.218 238.005 389.162C238.251 388.976 238.437 388.959 238.576 389.037C238.345 389.318 238.128 389.612 237.928 389.907C237.618 390.358 237.417 390.808 237.432 391.321C237.448 391.71 237.834 392.036 238.268 391.803C238.313 391.787 238.345 391.755 238.39 391.725C238.221 392.036 238.035 392.346 237.849 392.625C237.355 393.386 236.799 394.086 236.258 394.816C235.779 395.453 235.408 396.245 235.022 396.944C234.62 397.643 234.156 398.358 233.925 399.134C233.677 399.943 233.429 400.672 232.843 401.325C232.255 401.993 231.528 402.521 230.848 403.08C230.2 403.639 229.659 404.338 229.041 404.944C228.808 405.177 228.19 405.566 228.083 405.86C227.912 406.342 228.484 405.923 228.639 405.783C229.272 405.177 229.845 404.524 230.463 403.903C231.652 402.707 233.275 401.806 233.94 400.175C234.248 399.414 234.419 398.669 234.836 397.938C235.238 397.255 235.547 396.37 236.104 395.81C236.861 399.197 235.146 402.35 233.121 404.944C232.58 405.644 232.007 406.295 231.466 407.011C231.235 407.32 231.004 407.632 230.771 407.943C230.709 408.036 230.215 408.594 230.602 408.564C230.818 408.548 231.188 407.926 231.312 407.772C231.575 407.43 231.823 407.088 232.069 406.73C232.471 406.172 232.935 405.395 233.491 404.976C233.739 405.798 233.908 406.793 233.568 407.616C233.198 408.517 232.486 409.325 231.93 410.117C231.374 410.893 230.833 411.67 230.339 412.494C229.86 413.317 229.426 414.249 228.808 414.995C228.284 415.631 227.773 416.191 227.202 416.765C225.748 418.226 224.157 419.546 222.502 420.774C221.7 421.364 220.941 421.938 220.479 422.855C220.06 423.694 219.953 424.688 219.814 425.604C219.196 429.613 219.38 433.636 219.474 437.674C219.474 437.845 219.397 438.87 219.69 438.793C219.859 438.746 219.782 437.985 219.782 437.814C219.782 436.758 219.767 435.701 219.69 434.661C219.643 433.744 219.551 432.812 219.581 431.895C219.613 430.87 219.72 429.845 219.767 428.82C219.814 427.888 219.906 426.972 220.045 426.055C220.184 425.139 220.261 424.144 220.618 423.274C221.313 421.612 223.013 420.898 224.326 419.795C225.81 418.536 227.309 417.201 228.592 415.74C229.845 414.327 230.585 412.556 231.667 411.003C232.687 409.542 234.141 408.114 234.079 406.218C234.079 405.969 234.064 405.69 234.002 405.441C233.955 405.24 233.831 405.053 233.816 404.835C233.769 404.416 234.141 404.167 234.342 403.857C234.883 403.08 235.3 402.195 235.67 401.325C236.057 400.424 236.397 399.554 236.506 398.575C236.613 397.566 236.459 396.617 236.382 395.609C236.335 395.08 236.628 394.863 236.938 394.459C237.247 394.07 237.509 393.652 237.788 393.247C238.298 392.501 238.824 391.725 239.07 390.839C239.442 390.296 239.782 389.736 239.936 389.115C240.013 388.913 240.045 388.633 239.89 388.479ZM203.477 427.096C203.37 425.139 203.276 423.181 203.246 421.209C203.214 419.375 203.323 417.496 203.524 415.679C203.74 413.799 203.988 411.873 203.894 409.978C203.817 408.191 203.524 406.342 203.169 404.587C202.782 402.677 202.164 400.828 201.623 398.964C201.36 398.062 201.189 397.177 200.665 396.369C200.154 395.592 199.521 394.971 198.933 394.273C198.392 393.635 197.928 392.936 197.434 392.268C196.878 391.492 196.106 391.15 195.302 390.653C195.039 390.482 194.56 390.14 194.034 389.798C193.786 389.411 193.446 389.099 193.029 388.82C192.612 388.54 192.195 388.276 191.763 388.027C191.515 387.888 191.237 387.748 190.959 387.717C190.681 387.685 190.371 387.778 190.294 388.012C190.217 388.245 190.371 388.509 190.542 388.727C190.773 389.006 191.021 389.27 191.314 389.504C191.267 389.581 191.237 389.675 191.205 389.783C191.004 390.514 191.5 391.383 191.932 391.942C192.458 392.642 193.123 393.107 193.818 393.62C194.56 394.164 195.086 394.77 195.58 395.531C195.811 395.888 197.032 397.286 196.724 397.705C195.672 396.898 194.699 395.996 193.632 395.189C192.488 394.318 191.284 393.481 190.217 392.517C188.115 390.622 186.229 388.494 184.405 386.35C183.494 385.278 182.643 384.128 181.717 383.072C181.298 382.607 180.913 382.062 180.357 381.736C180.186 381.627 180.032 381.534 179.846 381.55C179.831 381.534 179.816 381.519 179.816 381.504C179.677 381.333 179.538 381.177 179.352 381.084C179.151 380.991 178.903 380.991 178.749 381.13C178.595 381.27 178.61 381.504 178.657 381.705C178.764 382.187 178.997 382.622 179.258 383.057C179.397 384.175 180.201 385.247 180.742 386.148C181.422 387.313 182.119 388.494 182.752 389.69C183.092 390.343 183.323 391.087 183.802 391.647C184.298 392.253 184.961 392.765 185.534 393.293C186.167 393.868 186.802 394.428 187.403 395.018C187.837 395.438 188.455 395.996 188.579 396.602C188.222 396.68 187.899 396.308 187.666 396.09C187.249 395.717 186.847 395.344 186.445 394.971C185.688 394.288 184.961 393.574 184.221 392.874C183.509 392.207 182.799 391.585 182.179 390.823C181.578 390.094 181.191 389.24 180.65 388.462C180.109 387.685 179.444 386.987 178.918 386.195C178.377 385.386 177.868 384.61 177.235 383.864C176.863 383.429 175.997 382.233 175.317 382.512C175.272 382.529 175.21 382.56 175.178 382.59C175.056 382.482 174.916 382.358 174.761 382.265C174.545 382.155 174.252 382.155 174.113 382.311C173.957 382.482 173.989 382.746 174.051 382.964C174.22 383.569 174.545 384.144 174.916 384.688C175.163 385.573 175.689 386.35 176.183 387.095C176.461 387.499 176.739 387.919 177.034 388.308C177.342 388.711 177.637 388.929 177.59 389.457C177.513 390.466 177.342 391.414 177.451 392.424C177.558 393.403 177.898 394.288 178.285 395.173C178.657 396.044 179.089 396.929 179.615 397.705C179.831 398.016 180.186 398.265 180.139 398.684C180.124 398.886 180 399.087 179.955 399.29C179.893 399.539 179.878 399.818 179.878 400.067C179.816 401.961 181.268 403.391 182.288 404.851C183.355 406.405 184.097 408.175 185.348 409.604C186.646 411.064 188.13 412.4 189.614 413.659C190.912 414.762 192.612 415.476 193.307 417.139C193.679 418.008 193.741 419.003 193.88 419.92C194.019 420.85 194.111 421.752 194.143 422.684C194.188 423.709 194.282 424.734 194.312 425.76C194.344 426.676 194.25 427.608 194.205 428.525C194.143 429.581 194.111 430.638 194.111 431.678C194.111 431.865 194.034 432.626 194.205 432.656C194.498 432.734 194.421 431.709 194.421 431.538C194.513 427.5 194.699 423.476 194.096 419.468C193.957 418.551 193.848 417.558 193.431 416.719C192.967 415.818 192.21 415.227 191.406 414.637C189.753 413.41 188.162 412.089 186.708 410.614C186.137 410.039 185.611 409.465 185.1 408.843C184.499 408.097 184.065 407.181 183.586 406.342C183.107 405.519 182.551 404.742 182.01 403.966C181.454 403.174 180.759 402.365 180.372 401.449C180.032 400.626 180.201 399.632 180.449 398.808C181.005 399.227 181.469 400.004 181.856 400.579C182.102 400.936 182.35 401.278 182.613 401.62C182.737 401.775 183.107 402.396 183.323 402.413C183.71 402.428 183.231 401.868 183.154 401.79C182.938 401.481 182.69 401.169 182.459 400.858C181.933 400.16 181.36 399.491 180.819 398.793C178.811 396.198 177.096 393.045 177.853 389.659C178.409 390.218 178.717 391.104 179.119 391.787C179.538 392.501 179.707 393.263 180.017 394.024C180.68 395.639 182.303 396.556 183.494 397.752C184.112 398.373 184.668 399.041 185.318 399.632C185.472 399.772 186.028 400.207 185.874 399.709C185.765 399.414 185.147 399.011 184.916 398.793C184.298 398.187 183.757 397.472 183.107 396.929C182.427 396.353 181.717 395.826 181.114 395.157C180.541 394.506 180.295 393.775 180.032 392.967C179.799 392.19 179.337 391.476 178.935 390.777C178.548 390.077 178.178 389.286 177.697 388.649C177.157 387.919 176.6 387.22 176.106 386.459C175.92 386.163 175.736 385.868 175.565 385.542C175.612 385.573 175.642 385.604 175.689 385.62C176.121 385.853 176.523 385.527 176.523 385.138C176.538 384.61 176.337 384.175 176.029 383.71C175.828 383.414 175.612 383.119 175.379 382.839C175.518 382.761 175.704 382.778 175.952 382.964C177.374 384.02 178.178 385.76 179.228 387.127C179.769 387.826 180.31 388.54 180.804 389.27C181.067 389.659 181.206 390.109 181.469 390.482C181.747 390.871 182.102 391.228 182.412 391.585C182.968 392.222 183.648 392.719 184.251 393.293C184.916 393.931 185.581 394.552 186.244 395.189C186.817 395.732 187.527 396.556 188.269 396.883C188.547 397.006 188.904 396.991 188.934 396.602C188.964 396.276 188.547 395.763 188.346 395.531C187.264 394.225 185.827 393.122 184.591 391.989C183.911 391.368 183.586 390.73 183.199 389.907C182.829 389.162 182.335 388.385 181.871 387.592C181.407 386.785 180.943 385.961 180.464 385.17C180.233 384.781 179.97 384.331 179.784 383.864C179.861 383.957 179.938 384.051 180.062 384.113C180.449 384.315 180.819 384.035 180.851 383.693C180.898 383.228 180.742 382.855 180.479 382.451C180.387 382.296 180.278 382.14 180.171 381.984C180.402 382.078 180.665 382.342 180.804 382.482C181.422 383.072 181.933 383.833 182.474 384.486C183.648 385.916 184.822 387.376 186.06 388.742C187.296 390.109 188.594 391.429 189.924 392.688C191.19 393.899 192.689 394.831 194.066 395.903C194.746 396.431 195.394 397.022 196.074 397.549C196.26 397.69 196.801 398.25 196.987 398.172C197.31 398.047 197.079 397.441 196.987 397.24C196.585 396.385 195.982 395.592 195.456 394.831C194.947 394.102 194.312 393.652 193.602 393.138C192.89 392.625 192.272 392.113 191.87 391.336C191.669 390.964 191.344 390.202 191.592 389.752C192.009 390.077 192.443 390.373 192.89 390.668C193.106 390.808 193.339 390.964 193.602 390.994C194.034 391.057 194.282 390.793 194.297 390.466C195.039 390.916 195.796 391.321 196.508 391.818C197.188 392.283 197.62 393.107 198.129 393.745C198.655 394.411 199.211 395.049 199.752 395.685C200.263 396.292 200.757 396.929 200.973 397.705C201.189 398.498 201.422 399.29 201.653 400.082C202.211 401.9 202.75 403.702 203.06 405.597C203.37 407.445 203.693 409.34 203.648 411.22C203.601 413.006 203.276 414.792 203.169 416.579C203.045 418.49 202.983 420.385 202.983 422.295C202.983 424.159 203.122 426.008 203.261 427.857C203.338 428.804 203.37 429.767 203.462 430.716C203.509 431.181 203.554 431.663 203.601 432.129C203.631 432.362 203.772 433.34 203.894 432.673C204.033 431.802 203.725 430.809 203.678 429.938C203.616 428.991 203.524 428.043 203.477 427.096Z" fill="black"/>
<circle cx="237" cy="205" r="50" fill="url(#paint4_linear)"/>
<path d="M258.707 203.904C259.264 203.904 260.36 202.293 260.36 201.479C260.36 202.293 261.474 203.904 262.013 203.904C261.457 203.904 260.36 205.514 260.36 206.328C260.36 205.514 259.247 203.904 258.707 203.904ZM253.174 193.376C253.174 192.147 254.862 189.688 255.697 189.688C254.862 189.688 253.174 187.229 253.174 186C253.174 187.229 251.487 189.688 250.651 189.688C251.487 189.688 253.174 192.147 253.174 193.376ZM280.525 207.228C279.063 208.838 277.741 210.535 276.331 212.18C275.462 213.201 274.557 214.206 273.67 215.228C273.2 215.746 272.782 216.301 272.365 216.855C272.087 217.236 271.843 217.842 271.356 217.825C270.852 217.807 270.086 217.149 269.773 216.82C269.32 216.353 269.425 216.301 268.902 216.682C267.876 217.392 267.006 218.327 266.032 219.123C265.005 219.972 263.874 220.717 262.935 221.651C262.448 222.136 262.013 222.638 261.578 223.158C261.213 223.608 260.9 224.266 260.464 224.646C260.29 224.785 259.96 224.993 259.734 224.958C259.351 224.907 259.49 224.699 259.333 224.438C259.177 224.179 258.794 223.954 258.672 223.712C258.586 223.539 258.672 223.365 258.602 223.21C258.499 222.984 258.168 222.933 258.012 222.76C257.664 222.361 257.924 221.997 258.377 221.807C259.421 221.339 260.621 221.132 261.682 220.664C262.761 220.179 263.665 219.279 264.588 218.57C265.928 217.565 267.233 216.492 268.572 215.47C268.224 214.829 267.737 214.223 267.424 213.583C267.18 213.063 267.059 212.439 267.511 212.041C268.032 211.574 268.746 211.436 269.355 211.124C270.033 210.777 270.695 210.396 271.356 210.033C274.018 208.561 276.331 206.536 278.959 204.994C279.899 204.44 280.595 203.886 281.464 204.769C282.334 205.653 281.151 206.552 280.525 207.228ZM262.604 221.634C262.379 221.374 262.17 221.098 262.187 220.717C261.804 220.89 261.404 221.045 261.004 221.218C261.074 221.374 261.961 220.907 262.03 221.045C261.248 221.6 260.013 221.859 259.125 222.189C259.665 221.807 260.255 221.53 260.865 221.288C260.36 221.288 259.839 221.616 259.368 221.755C259.125 221.824 258.203 221.946 258.133 222.24C258.046 222.586 258.794 222.829 258.899 223.088C258.95 223.21 258.899 223.382 258.934 223.504C258.968 223.573 259.142 223.729 259.194 223.781C259.351 223.937 259.49 224.058 259.595 224.248C259.665 224.37 259.577 224.526 259.734 224.612C260.047 224.785 260.517 224.179 260.673 223.989C261.299 223.21 261.961 222.43 262.604 221.634ZM269.129 216.18C268.92 215.746 268.728 215.73 268.38 215.954C267.72 216.37 267.128 216.959 266.502 217.426C265.283 218.378 264.013 219.296 262.831 220.301C262.709 220.405 262.43 220.647 262.43 220.647L262.761 221.478C262.761 221.478 262.987 221.253 263.057 221.218C263.753 220.803 264.484 220.093 265.058 219.626C266.432 218.482 267.755 217.288 269.129 216.18ZM280.872 204.683C279.933 204.181 278.228 205.704 277.462 206.206C276.192 207.038 274.905 207.851 273.687 208.752C272.539 209.6 271.391 210.275 270.138 210.95C269.529 211.279 268.886 211.556 268.259 211.851C267.72 212.111 267.372 212.284 267.493 212.924C267.616 213.565 268.102 214.068 268.415 214.621C268.624 215.002 268.851 215.314 269.129 215.66C269.39 215.972 269.633 216.319 269.929 216.63C270.399 217.114 270.921 217.322 271.495 217.617C273.409 215.193 275.532 212.924 277.445 210.5C278.367 209.323 279.272 208.094 280.333 207.054C281.046 206.379 282.23 205.427 280.872 204.683ZM270.747 211.868C271.268 211.955 272.347 211.107 272.747 210.864C273.6 210.362 274.418 209.79 275.235 209.219C276.314 208.475 277.306 207.627 278.35 206.83C278.629 206.622 280.124 205.757 280.09 205.341C278.437 206.379 277.011 207.747 275.409 208.873C273.914 209.929 272.296 210.864 270.747 211.868ZM271.477 215.903C271.547 215.954 272.626 214.708 272.73 214.586C273.513 213.721 274.713 212.786 275.184 211.695C274.418 212.509 273.617 213.305 272.87 214.119C272.574 214.431 271.426 215.418 271.477 215.903ZM268.155 213.427C268.206 213.479 268.642 213.254 268.694 213.219C268.763 213.185 269.547 212.665 269.512 212.561C269.459 212.405 268.206 213.358 268.155 213.427ZM260.743 222.742C260.726 222.76 259.925 223.486 259.925 223.521C260.03 223.798 261.195 222.552 261.23 222.499C261.265 222.448 262.239 221.565 262.204 221.478C262.239 221.512 260.865 222.621 260.743 222.742ZM261.734 221.426C261.734 221.461 260.638 221.981 260.517 222.067C260.169 222.309 259.873 222.621 259.507 222.864C259.821 222.95 261.752 221.773 261.734 221.426ZM253.766 223.971C253.714 223.937 253.662 223.885 253.627 223.85C252.879 223.245 252.078 222.69 251.313 222.085C249.764 220.837 248.181 219.626 246.511 218.517C244.824 217.392 243.031 216.405 241.309 215.332C240.352 214.743 239.43 214.102 238.473 213.548C237.778 213.15 236.907 212.786 236.42 212.145C237.864 211.574 239.743 212.128 241.205 212.371C241.97 212.492 242.44 212.596 243.031 213.115C243.658 213.652 244.336 214.119 245.032 214.569C245.467 214.863 246.25 215.158 246.581 215.574C246.737 215.781 246.72 215.989 246.772 216.231C246.841 216.543 247.015 216.855 247.173 217.132C247.589 217.825 248.617 218.69 249.416 218.431C249.434 218.466 249.469 218.517 249.504 218.552C249.643 218.725 249.852 218.829 250.008 218.743C250.165 218.656 250.217 218.431 250.235 218.223C250.252 217.928 250.252 217.617 250.2 217.322C250.2 217.114 250.147 216.907 250.095 216.682C250.043 216.439 249.991 216.215 249.938 215.972C249.903 215.85 249.887 215.746 249.834 215.626C249.799 215.418 249.747 215.228 249.695 215.037C249.608 214.743 249.381 214.379 249.364 214.084C249.364 214.068 249.364 214.05 249.364 214.033C249.451 214.068 249.539 214.084 249.625 214.033C249.782 213.946 249.834 213.721 249.852 213.513C249.903 212.786 249.729 212.025 249.573 211.279C249.521 211.089 249.486 210.881 249.364 210.726C249.33 210.691 249.312 210.657 249.277 210.639C248.773 209.427 248.007 208.267 247.12 207.297C246.215 206.293 245.328 205.029 243.971 204.683C242.562 204.319 241.1 204.232 239.726 203.782C238.386 203.332 237.029 202.864 235.742 202.276C236.576 201.947 237.395 201.687 238.177 201.237C239.064 200.735 239.517 200.856 240.457 201.185C241.152 201.427 242.231 201.514 242.77 202.034C243.414 202.656 243.71 203.661 244.388 204.25C244.858 204.666 245.589 205.046 246.268 204.977C246.354 205.133 246.459 205.272 246.598 205.392C246.755 205.531 246.946 205.583 247.05 205.479C247.155 205.376 247.138 205.15 247.085 204.942C246.929 204.232 246.563 203.54 246.198 202.864C246.11 202.709 246.024 202.536 245.903 202.415C245.555 201.773 245.206 201.151 244.858 200.509C244.406 199.679 243.849 199.194 243.048 198.709C241.796 197.964 240.265 196.77 238.734 196.753C237.047 196.735 235.359 197.41 233.706 197.705C231.949 198.017 230.382 197.895 228.678 197.324C227.025 196.77 225.372 196.25 223.702 195.748C221.962 195.228 220.274 194.623 218.605 193.913C217.038 193.238 215.924 192.233 214.707 191.073C213.489 189.931 212.341 188.753 211.002 187.749C210.862 187.645 210.148 187.264 210.427 187.835C210.531 188.043 211.088 188.302 211.279 188.459C211.819 188.909 212.306 189.411 212.827 189.878C214.081 190.987 215.16 192.302 216.534 193.255C217.995 194.259 219.666 194.847 221.335 195.419C222.919 195.956 224.537 196.476 226.138 196.943C227.773 197.428 229.321 198.172 231.027 198.311C232.766 198.449 234.489 198.034 236.176 197.601C237.029 197.375 237.899 197.202 238.769 197.255C239.5 197.289 240.039 197.601 240.682 197.878C242.075 198.501 243.64 199.315 244.423 200.666C244.754 201.22 245.119 201.757 245.415 202.328C245.346 202.397 245.293 202.501 245.293 202.64C245.293 203.072 245.432 203.471 245.659 203.92C245.78 204.146 245.903 204.389 246.024 204.613C245.311 204.597 244.754 204.111 244.318 203.557C243.884 202.986 243.605 202.034 243.014 201.618C242.683 201.375 242.075 201.289 241.674 201.185C241.256 201.064 240.857 200.943 240.439 200.804C239.726 200.562 239.099 200.215 238.386 200.562C237.569 200.978 236.803 201.496 235.916 201.791C235.568 201.912 235.22 201.964 234.872 201.895C234.524 201.826 233.288 201.445 233.323 201.566C233.358 201.669 234.384 202.12 234.593 202.207C235.341 202.57 236.107 202.934 236.873 203.245C238.473 203.886 240.143 204.458 241.848 204.717C242.632 204.838 243.588 204.925 244.301 205.288C244.928 205.6 245.467 206.137 245.92 206.656C246.981 207.851 248.077 209.185 248.703 210.673C248.634 210.726 248.582 210.795 248.547 210.899C248.39 211.314 248.408 211.747 248.512 212.232C248.599 212.596 248.686 212.959 248.791 213.323C248.808 213.375 248.825 213.444 248.842 213.495C248.668 213.513 248.529 213.236 248.338 213.028C248.042 212.7 247.763 212.353 247.468 212.025C246.354 210.76 245.172 209.496 243.571 208.838C241.848 208.128 240.004 207.747 238.264 207.054C237.446 206.726 236.629 206.293 235.811 206.016C235.585 205.947 235.08 205.912 235.063 206.016C235.063 206.051 236.125 206.605 236.299 206.691C237.952 207.366 239.638 207.938 241.326 208.509C242.944 209.064 244.388 209.513 245.641 210.743C246.302 211.401 246.929 212.076 247.538 212.786C248.007 213.34 248.582 213.86 248.895 214.535C248.965 214.69 249.068 214.967 249.19 215.297C249.051 215.332 248.912 215.436 248.86 215.591C248.703 216.007 248.721 216.439 248.825 216.924C248.912 217.288 248.998 217.652 249.103 218.015C249.103 218.032 249.121 218.067 249.121 218.084C248.982 218.136 248.808 218.154 248.564 218.101C247.886 217.928 247.347 217.08 247.155 216.457C246.911 215.66 246.737 215.314 246.006 214.863C245.293 214.414 244.562 213.998 243.884 213.495C243.327 213.098 242.857 212.405 242.196 212.18C241.744 212.025 241.221 212.041 240.752 211.99C240.317 211.921 239.882 211.833 239.447 211.764C238.612 211.626 237.638 211.505 236.785 211.591C236.49 211.626 235.498 211.782 235.445 211.955C235.411 212.094 236.09 212.63 236.281 212.769C236.889 213.254 237.569 213.617 238.247 214.015C239.638 214.829 241.048 215.677 242.423 216.526C244.006 217.513 245.606 218.466 247.12 219.539C248.617 220.595 250.078 221.686 251.505 222.829C251.713 223.002 251.939 223.175 252.148 223.349C251.835 223.417 251.748 223.729 251.922 224.024C252.201 224.542 252.635 224.958 253.192 225.339C253.471 225.53 253.749 225.72 254.027 225.894C253.94 225.928 253.836 225.963 253.68 225.98C251.957 226.188 250.339 225.253 249.19 224.093C248.582 223.469 247.763 223.296 247.033 222.88C246.354 222.499 245.711 222.015 245.015 221.651C244.353 221.288 243.728 220.733 243.031 220.474C242.214 220.179 241.43 219.868 240.648 219.522C239.013 218.794 237.325 218.154 235.672 217.444C232.383 216.058 228.991 214.76 225.546 213.842C224.885 213.669 224.033 213.201 223.65 214.033C223.336 214.708 223.58 215.781 223.65 216.509C223.684 216.89 223.668 217.322 223.91 217.634C224.154 217.928 224.589 218.101 224.903 218.309C225.581 218.794 226.224 219.349 226.799 219.938C227.46 220.613 228.017 221.374 228.573 222.119C229.043 222.76 229.583 223.365 229.983 224.041C230.191 224.387 230.435 225.011 230.313 225.409C229.913 224.993 229.444 224.612 228.991 224.248C228.799 224.093 228.608 223.937 228.382 223.867C227.93 223.729 227.477 224.248 227.477 224.63C226.677 224.11 225.911 223.539 225.128 223.019C224.502 222.603 223.824 222.275 223.25 221.773C222.623 221.235 222.224 220.56 221.753 219.903C221.266 219.227 220.709 218.604 220.118 218.015C218.848 216.682 217.421 215.522 216.186 214.154C215.002 212.838 214.081 211.418 213.402 209.774C213.054 208.907 212.706 208.059 212.411 207.176C212.132 206.362 211.94 205.514 211.592 204.734C211.053 203.037 209.783 201.93 208.444 200.717C205.851 198.38 203.016 196.233 200.005 194.433C199.936 194.847 200.597 195.124 200.858 195.315C201.345 195.679 201.849 196.025 202.336 196.388C203.311 197.098 204.286 197.809 205.225 198.553C206.965 199.921 208.844 201.289 210.271 203.003C211.592 204.579 212.01 206.726 212.671 208.613C213.333 210.535 214.446 212.526 215.821 214.015C217.143 215.452 218.605 216.734 219.944 218.136C221.214 219.469 222.101 221.235 223.598 222.309C225.251 223.504 227.025 224.646 228.799 225.668C228.869 225.703 228.938 225.755 229.026 225.79C229.356 226.067 229.704 226.344 230.052 226.587C230.261 226.742 230.505 226.897 230.748 226.967C230.992 227.036 231.271 227.001 231.357 226.811C231.445 226.621 231.305 226.379 231.166 226.153C231.079 226.014 230.957 225.876 230.853 225.755C231.183 225.149 230.818 224.232 230.487 223.712C229.913 222.794 229.165 221.946 228.522 221.08C227.93 220.301 227.251 219.643 226.538 218.984C226.173 218.656 225.825 218.292 225.424 217.981C225.112 217.738 224.572 217.53 224.363 217.184C224.172 216.872 224.258 216.266 224.258 215.92C224.241 215.47 224.137 214.847 224.241 214.414C224.45 213.599 225.633 214.172 226.19 214.31C227.077 214.535 227.895 214.76 228.764 215.071C230.731 215.764 232.697 216.457 234.628 217.253C236.559 218.05 238.473 218.898 240.404 219.695C241.379 220.093 242.37 220.474 243.31 220.959C244.127 221.374 244.893 221.911 245.694 222.395C246.546 222.915 247.433 223.349 248.338 223.798C249.156 224.197 249.729 224.941 250.444 225.478C251.261 226.084 252.131 226.222 253.14 226.344C253.557 226.395 254.305 226.465 254.741 226.188C254.984 226.326 255.245 226.465 255.506 226.534C255.784 226.603 256.062 226.534 256.132 226.344C256.185 226.153 256.011 225.894 255.819 225.668C255.228 225.027 254.497 224.491 253.766 223.971Z" fill="black"/>
<defs>
<linearGradient id="paint0_linear" x1="0" y1="50" x2="100" y2="50" gradientUnits="userSpaceOnUse">
<stop stop-color="#A18CD1"/>
<stop offset="1" stop-color="#FBC2EB"/>
</linearGradient>
<linearGradient id="paint1_linear" x1="245.5" y1="384" x2="289" y2="230" gradientUnits="userSpaceOnUse">
<stop stop-color="#F4BEE9"/>
<stop offset="0.618379" stop-color="#A18CD1"/>
<stop offset="1" stop-color="#F6BFEA"/>
</linearGradient>
<linearGradient id="paint2_linear" x1="191.877" y1="200.109" x2="107.539" y2="63.7328" gradientUnits="userSpaceOnUse">
<stop stop-color="#A18CD1"/>
<stop offset="1" stop-color="#F6BFEA"/>
</linearGradient>
<linearGradient id="paint3_linear" x1="158" y1="401" x2="258" y2="401" gradientUnits="userSpaceOnUse">
<stop stop-color="#A18CD1"/>
<stop offset="1" stop-color="#FBC2EB"/>
</linearGradient>
<linearGradient id="paint4_linear" x1="187" y1="205" x2="287" y2="205" gradientUnits="userSpaceOnUse">
<stop stop-color="#A18CD1"/>
<stop offset="1" stop-color="#FBC2EB"/>
</linearGradient>
</defs>
</svg>
