<svg width="20" height="20" viewBox="0 0 20 20" fill="none" xmlns="http://www.w3.org/2000/svg">
<circle cx="10" cy="10" r="10" fill="#323537"/>
<path d="M6.91259 6.15638C6.70409 5.94787 6.36536 5.94787 6.15686 6.15638C5.94771 6.36552 5.94771 6.70362 6.15686 6.91276L9.24394 9.99986L6.15686 13.087C5.94771 13.2961 5.94771 13.6342 6.15686 13.8433C6.36536 14.0518 6.70409 14.0518 6.91259 13.8433L10.0003 10.7562L13.0874 13.8433C13.2959 14.0518 13.6346 14.0518 13.8431 13.8433C14.0523 13.6342 14.0523 13.2961 13.8431 13.087L10.7561 9.99986L13.8431 6.91276C14.0523 6.70362 14.0523 6.36552 13.8431 6.15638C13.6346 5.94787 13.2959 5.94787 13.0874 6.15638L10.0003 9.24347L6.91259 6.15638Z" fill="white"/>
</svg>
